<svg width="240" height="240" viewBox="0 0 48 48" xmlns="http://www.w3.org/2000/svg" xmlns:xlink="http://www.w3.org/1999/xlink" overflow="hidden"><linearGradient x1="4.725" y1="14.725" x2="23.055" y2="33.055" gradientUnits="userSpaceOnUse" id="flEJnwg7q~uKUdkX0KCyBa"><stop offset="0" stop-color="#18884F"/><stop offset="1" stop-color="#0B6731"/></linearGradient><rect x="28" y="15" width="16" height="9" fill="#21A366"/><path d="M44 24 12 24 12 40C12 41.105 12.895 42 14 42L42 42C43.105 42 44 41.105 44 40L44 24Z" fill="#185C37"/><rect x="28" y="24" width="16" height="9" fill="#107C42"/><rect x="12" y="15" width="16" height="9" fill="#3FA071"/><path d="M42 6 28 6 28 15 44 15 44 8C44 6.895 43.105 6 42 6Z" fill="#33C481"/><path d="M14 6 28 6 28 15 12 15 12 8C12 6.895 12.895 6 14 6Z" fill="#21A366"/><path d="M22.319 13 12 13 12 37 22.319 37C24.352 37 26 35.352 26 33.319L26 16.681C26 14.648 24.352 13 22.319 13Z" opacity="0.05"/><path d="M22.213 36 12 36 12 13.333 22.213 13.333C23.937 13.333 25.334 14.73 25.334 16.454L25.334 32.879C25.333 34.603 23.936 36 22.213 36Z" opacity="0.07"/><path d="M22.106 35 12 35 12 13.667 22.106 13.667C23.52 13.667 24.666 14.813 24.666 16.227L24.666 32.44C24.667 33.854 23.52 35 22.106 35Z" opacity="0.09"/><path d="M22 34 6 34C4.895 34 4 33.105 4 32L4 16C4 14.895 4.895 14 6 14L22 14C23.105 14 24 14.895 24 16L24 32C24 33.105 23.105 34 22 34Z" fill="url(#flEJnwg7q~uKUdkX0KCyBa)"/><path d="M9.807 19 12.193 19 14.129 22.754 16.175 19 18.404 19 15.333 24 18.474 29 16.123 29 14.013 25.07 11.912 29 9.526 29 12.719 23.982 9.807 19Z" fill="#FFFFFF"/></svg>