<svg width="240" height="240" viewBox="0 0 48 48" xmlns="http://www.w3.org/2000/svg" xmlns:xlink="http://www.w3.org/1999/xlink" overflow="hidden"><linearGradient x1="32" y1="3.947" x2="32" y2="44.751" gradientUnits="userSpaceOnUse" id="zlT103XX9RAwCGfF9JpW0a"><stop offset="0.006" stop-color="#EBB112"/><stop offset="1" stop-color="#BB5C17"/></linearGradient><linearGradient x1="22.089" y1="13.14" x2="26.009" y2="45.672" gradientUnits="userSpaceOnUse" id="zlT103XX9RAwCGfF9JpW0b"><stop offset="0" stop-color="#FED35D"/><stop offset="0.281" stop-color="#F6C648"/><stop offset="0.857" stop-color="#E3A513"/><stop offset="0.989" stop-color="#DE9D06"/></linearGradient><linearGradient x1="9.803" y1="22.781" x2="21.335" y2="43.658" gradientUnits="userSpaceOnUse" id="zlT103XX9RAwCGfF9JpW0c"><stop offset="0" stop-color="#FFD869"/><stop offset="0.983" stop-color="#FFDF26"/></linearGradient><path d="M27 44 37 44C38.105 44 39 43.105 39 42L39 6C39 4.895 38.105 4 37 4L27 4C25.895 4 25 4.895 25 6L25 42C25 43.105 25.895 44 27 44Z" fill="url(#zlT103XX9RAwCGfF9JpW0a)"/><path d="M19 44 29 44C30.105 44 31 43.105 31 42L31 16C31 14.895 30.105 14 29 14L19 14C17.895 14 17 14.895 17 16L17 42C17 43.105 17.895 44 19 44Z" fill="url(#zlT103XX9RAwCGfF9JpW0b)"/><path d="M11 44 21 44C22.105 44 23 43.105 23 42L23 26C23 24.895 22.105 24 21 24L11 24C9.895 24 9 24.895 9 26L9 42C9 43.105 9.895 44 11 44Z" fill="url(#zlT103XX9RAwCGfF9JpW0c)"/></svg>