<svg width="480" height="480" viewBox="0 0 48 48" xmlns="http://www.w3.org/2000/svg" xmlns:xlink="http://www.w3.org/1999/xlink" overflow="hidden"><path d="M42.256 6 15.744 6C14.781 6 14 6.781 14 7.744L14 15.003 44 15.003 44 7.744C44 6.781 43.219 6 42.256 6Z" fill="#2D92D4"/><path d="M14 33.054 14 40.256C14 41.219 14.781 42 15.743 42L42.256 42C43.219 42 44 41.219 44 40.256L44 33.054 14 33.054Z" fill="#2150A9"/><path d="M14 15.003 44 15.003 44 24.005 14 24.005Z" fill="#2D83D4"/><path d="M14 24.005 44 24.005 44 33.055 14 33.055Z" fill="#2E70C9"/><path d="M22.319 34 5.681 34C4.753 34 4 33.247 4 32.319L4 15.681C4 14.753 4.753 14 5.681 14L22.319 14C23.247 14 24 14.753 24 15.681L24 32.319C24 33.247 23.247 34 22.319 34Z" fill="#00488D"/><path d="M18.403 19 16.857 26.264 15.144 19 12.957 19 11.19 26.489 9.597 19 7.641 19 9.985 29 12.337 29 14.05 21.311 15.764 29 18.015 29 20.359 19Z" fill="#FFFFFF"/></svg>